<mxfile host="app.diagrams.net" modified="2023-05-11T14:14:56.917Z" agent="Mozilla/5.0 (Macintosh; Intel Mac OS X 10_15_7) AppleWebKit/537.36 (KHTML, like Gecko) Chrome/113.0.0.0 Safari/537.36" etag="ozdulLm8Cqssr5dm_DQl" version="21.2.9" type="github">
  <diagram name="Module structure" id="0783ab3e-0a74-02c8-0abd-f7b4e66b4bec">
    <mxGraphModel dx="1623" dy="969" grid="1" gridSize="10" guides="1" tooltips="1" connect="1" arrows="1" fold="1" page="1" pageScale="1" pageWidth="850" pageHeight="1100" background="none" math="0" shadow="0">
      <root>
        <mxCell id="0" />
        <mxCell id="1" parent="0" />
        <mxCell id="SV96MelX3Qb47BfTz66f-87" value="" style="rounded=0;whiteSpace=wrap;html=1;fillColor=none;" vertex="1" parent="1">
          <mxGeometry x="10" y="10" width="250" height="400" as="geometry" />
        </mxCell>
        <mxCell id="SV96MelX3Qb47BfTz66f-88" value="View Controller" style="text;html=1;strokeColor=none;fillColor=none;align=center;verticalAlign=middle;whiteSpace=wrap;rounded=0;" vertex="1" parent="1">
          <mxGeometry x="10" y="10" width="240" height="30" as="geometry" />
        </mxCell>
        <mxCell id="SV96MelX3Qb47BfTz66f-89" value="Header" style="rounded=0;whiteSpace=wrap;html=1;fillColor=none;" vertex="1" parent="1">
          <mxGeometry x="20" y="40" width="230" height="40" as="geometry" />
        </mxCell>
        <mxCell id="SV96MelX3Qb47BfTz66f-90" value="Content" style="rounded=0;whiteSpace=wrap;html=1;fillColor=none;" vertex="1" parent="1">
          <mxGeometry x="20" y="90" width="110" height="40" as="geometry" />
        </mxCell>
        <mxCell id="SV96MelX3Qb47BfTz66f-91" value="Content" style="rounded=0;whiteSpace=wrap;html=1;fillColor=none;" vertex="1" parent="1">
          <mxGeometry x="140" y="90" width="110" height="40" as="geometry" />
        </mxCell>
        <mxCell id="SV96MelX3Qb47BfTz66f-92" value="Content" style="rounded=0;whiteSpace=wrap;html=1;fillColor=none;" vertex="1" parent="1">
          <mxGeometry x="20" y="160" width="230" height="190" as="geometry" />
        </mxCell>
        <mxCell id="SV96MelX3Qb47BfTz66f-93" value="Button" style="rounded=0;whiteSpace=wrap;html=1;fillColor=none;" vertex="1" parent="1">
          <mxGeometry x="20" y="360" width="230" height="40" as="geometry" />
        </mxCell>
        <mxCell id="SV96MelX3Qb47BfTz66f-96" value="" style="rounded=0;whiteSpace=wrap;html=1;fillColor=none;" vertex="1" parent="1">
          <mxGeometry x="290" y="10" width="250" height="180" as="geometry" />
        </mxCell>
        <mxCell id="SV96MelX3Qb47BfTz66f-97" value="Formatter&lt;br&gt;" style="text;html=1;strokeColor=none;fillColor=none;align=center;verticalAlign=middle;whiteSpace=wrap;rounded=0;" vertex="1" parent="1">
          <mxGeometry x="290" y="10" width="240" height="30" as="geometry" />
        </mxCell>
        <mxCell id="SV96MelX3Qb47BfTz66f-103" style="edgeStyle=orthogonalEdgeStyle;rounded=0;orthogonalLoop=1;jettySize=auto;html=1;" edge="1" parent="1" source="SV96MelX3Qb47BfTz66f-98" target="SV96MelX3Qb47BfTz66f-88">
          <mxGeometry relative="1" as="geometry">
            <Array as="points">
              <mxPoint x="280" y="60" />
              <mxPoint x="280" y="25" />
            </Array>
          </mxGeometry>
        </mxCell>
        <mxCell id="SV96MelX3Qb47BfTz66f-98" value="func didInit()" style="rounded=0;whiteSpace=wrap;html=1;fillColor=none;" vertex="1" parent="1">
          <mxGeometry x="300" y="40" width="230" height="40" as="geometry" />
        </mxCell>
        <mxCell id="SV96MelX3Qb47BfTz66f-108" style="edgeStyle=orthogonalEdgeStyle;rounded=0;orthogonalLoop=1;jettySize=auto;html=1;entryX=1;entryY=0.5;entryDx=0;entryDy=0;" edge="1" parent="1" source="SV96MelX3Qb47BfTz66f-99" target="SV96MelX3Qb47BfTz66f-89">
          <mxGeometry relative="1" as="geometry">
            <Array as="points">
              <mxPoint x="270" y="110" />
              <mxPoint x="270" y="60" />
            </Array>
          </mxGeometry>
        </mxCell>
        <mxCell id="SV96MelX3Qb47BfTz66f-99" value="func updateHeader(_:)" style="rounded=0;whiteSpace=wrap;html=1;fillColor=none;" vertex="1" parent="1">
          <mxGeometry x="300" y="90" width="230" height="40" as="geometry" />
        </mxCell>
        <mxCell id="SV96MelX3Qb47BfTz66f-105" style="edgeStyle=orthogonalEdgeStyle;rounded=0;orthogonalLoop=1;jettySize=auto;html=1;exitX=0;exitY=0.75;exitDx=0;exitDy=0;entryX=0.998;entryY=0.225;entryDx=0;entryDy=0;entryPerimeter=0;" edge="1" parent="1" source="SV96MelX3Qb47BfTz66f-100" target="SV96MelX3Qb47BfTz66f-92">
          <mxGeometry relative="1" as="geometry">
            <Array as="points">
              <mxPoint x="275" y="170" />
              <mxPoint x="275" y="203" />
            </Array>
          </mxGeometry>
        </mxCell>
        <mxCell id="SV96MelX3Qb47BfTz66f-106" style="edgeStyle=orthogonalEdgeStyle;rounded=0;orthogonalLoop=1;jettySize=auto;html=1;exitX=0;exitY=0.5;exitDx=0;exitDy=0;entryX=0.677;entryY=0.983;entryDx=0;entryDy=0;entryPerimeter=0;" edge="1" parent="1" source="SV96MelX3Qb47BfTz66f-100" target="SV96MelX3Qb47BfTz66f-90">
          <mxGeometry relative="1" as="geometry">
            <Array as="points">
              <mxPoint x="270" y="160" />
              <mxPoint x="270" y="150" />
              <mxPoint x="95" y="150" />
            </Array>
          </mxGeometry>
        </mxCell>
        <mxCell id="SV96MelX3Qb47BfTz66f-107" style="edgeStyle=orthogonalEdgeStyle;rounded=0;orthogonalLoop=1;jettySize=auto;html=1;entryX=1;entryY=0.75;entryDx=0;entryDy=0;" edge="1" parent="1" source="SV96MelX3Qb47BfTz66f-100" target="SV96MelX3Qb47BfTz66f-91">
          <mxGeometry relative="1" as="geometry">
            <Array as="points">
              <mxPoint x="275" y="150" />
              <mxPoint x="275" y="120" />
            </Array>
          </mxGeometry>
        </mxCell>
        <mxCell id="SV96MelX3Qb47BfTz66f-100" value="func updateContent(_:)" style="rounded=0;whiteSpace=wrap;html=1;fillColor=none;" vertex="1" parent="1">
          <mxGeometry x="300" y="140" width="230" height="40" as="geometry" />
        </mxCell>
        <mxCell id="SV96MelX3Qb47BfTz66f-110" value="" style="rounded=0;whiteSpace=wrap;html=1;fillColor=none;" vertex="1" parent="1">
          <mxGeometry x="580" y="10" width="250" height="280" as="geometry" />
        </mxCell>
        <mxCell id="SV96MelX3Qb47BfTz66f-111" value="Business (page) model" style="text;html=1;strokeColor=none;fillColor=none;align=center;verticalAlign=middle;whiteSpace=wrap;rounded=0;" vertex="1" parent="1">
          <mxGeometry x="580" y="10" width="240" height="30" as="geometry" />
        </mxCell>
        <mxCell id="SV96MelX3Qb47BfTz66f-122" style="edgeStyle=orthogonalEdgeStyle;rounded=0;orthogonalLoop=1;jettySize=auto;html=1;entryX=1;entryY=0.5;entryDx=0;entryDy=0;" edge="1" parent="1" source="SV96MelX3Qb47BfTz66f-112" target="SV96MelX3Qb47BfTz66f-99">
          <mxGeometry relative="1" as="geometry">
            <Array as="points">
              <mxPoint x="550" y="60" />
              <mxPoint x="550" y="110" />
            </Array>
          </mxGeometry>
        </mxCell>
        <mxCell id="SV96MelX3Qb47BfTz66f-112" value="Header Data" style="rounded=0;whiteSpace=wrap;html=1;fillColor=none;" vertex="1" parent="1">
          <mxGeometry x="590" y="40" width="230" height="40" as="geometry" />
        </mxCell>
        <mxCell id="SV96MelX3Qb47BfTz66f-121" style="edgeStyle=orthogonalEdgeStyle;rounded=0;orthogonalLoop=1;jettySize=auto;html=1;exitX=0;exitY=0.5;exitDx=0;exitDy=0;entryX=1;entryY=0.25;entryDx=0;entryDy=0;" edge="1" parent="1" source="SV96MelX3Qb47BfTz66f-113" target="SV96MelX3Qb47BfTz66f-100">
          <mxGeometry relative="1" as="geometry" />
        </mxCell>
        <mxCell id="SV96MelX3Qb47BfTz66f-113" value="Content" style="rounded=0;whiteSpace=wrap;html=1;fillColor=none;" vertex="1" parent="1">
          <mxGeometry x="590" y="90" width="230" height="40" as="geometry" />
        </mxCell>
        <mxCell id="SV96MelX3Qb47BfTz66f-120" style="edgeStyle=orthogonalEdgeStyle;rounded=0;orthogonalLoop=1;jettySize=auto;html=1;entryX=1;entryY=0.5;entryDx=0;entryDy=0;" edge="1" parent="1" source="SV96MelX3Qb47BfTz66f-114" target="SV96MelX3Qb47BfTz66f-100">
          <mxGeometry relative="1" as="geometry" />
        </mxCell>
        <mxCell id="SV96MelX3Qb47BfTz66f-114" value="Content" style="rounded=0;whiteSpace=wrap;html=1;fillColor=none;" vertex="1" parent="1">
          <mxGeometry x="590" y="140" width="230" height="40" as="geometry" />
        </mxCell>
        <mxCell id="SV96MelX3Qb47BfTz66f-118" style="edgeStyle=orthogonalEdgeStyle;rounded=0;orthogonalLoop=1;jettySize=auto;html=1;entryX=1;entryY=0.5;entryDx=0;entryDy=0;" edge="1" parent="1" source="SV96MelX3Qb47BfTz66f-116" target="SV96MelX3Qb47BfTz66f-93">
          <mxGeometry relative="1" as="geometry" />
        </mxCell>
        <mxCell id="SV96MelX3Qb47BfTz66f-116" value="Button title" style="rounded=0;whiteSpace=wrap;html=1;fillColor=none;" vertex="1" parent="1">
          <mxGeometry x="590" y="240" width="230" height="40" as="geometry" />
        </mxCell>
        <mxCell id="SV96MelX3Qb47BfTz66f-119" style="edgeStyle=orthogonalEdgeStyle;rounded=0;orthogonalLoop=1;jettySize=auto;html=1;entryX=1;entryY=0.75;entryDx=0;entryDy=0;" edge="1" parent="1" source="SV96MelX3Qb47BfTz66f-117" target="SV96MelX3Qb47BfTz66f-100">
          <mxGeometry relative="1" as="geometry" />
        </mxCell>
        <mxCell id="SV96MelX3Qb47BfTz66f-117" value="Content" style="rounded=0;whiteSpace=wrap;html=1;fillColor=none;" vertex="1" parent="1">
          <mxGeometry x="590" y="190" width="230" height="40" as="geometry" />
        </mxCell>
      </root>
    </mxGraphModel>
  </diagram>
</mxfile>
